<svg width="209" height="178" viewBox="0 0 209 178" fill="none" xmlns="http://www.w3.org/2000/svg">
<rect width="209" height="178" fill="black"/>
<path fill-rule="evenodd" clip-rule="evenodd" d="M104 14.8333C63.06 14.8333 29.8334 48.0599 29.8334 88.9999C29.8334 129.94 63.06 163.167 104 163.167C144.94 163.167 178.167 129.94 178.167 88.9999C178.167 48.0599 144.94 14.8333 104 14.8333ZM104 148.333C71.2926 148.333 44.6667 121.707 44.6667 88.9999C44.6667 56.2924 71.2926 29.6665 104 29.6665C136.708 29.6665 163.333 56.2924 163.333 88.9999C163.333 121.707 136.708 148.333 104 148.333ZM88.9441 70.2358C88.9441 75.6499 93.1716 79.2841 106.299 82.6216C119.352 86.0333 133.37 91.6699 133.444 107.987C133.37 119.927 124.47 126.38 113.197 128.531V140.917H95.8416V128.308C84.7166 126.009 75.3716 118.889 74.6299 106.281H87.3866C88.0541 113.104 92.7266 118.444 104.593 118.444C117.276 118.444 120.168 112.066 120.168 108.135C120.168 102.795 117.276 97.6774 102.813 94.2658C86.7191 90.4091 75.6682 83.7341 75.6682 70.4583C75.6682 59.2591 84.6424 51.9907 95.8416 49.6174V37.0832H113.122V49.7658C125.137 52.7324 131.219 61.8549 131.59 71.7933H118.907C118.611 64.5249 114.754 59.6299 104.519 59.6299C94.8032 59.6299 88.9441 64.0058 88.9441 70.2358Z" fill="#FFD645"/>
</svg>
