<svg width="18" height="18" viewBox="0 0 18 18" fill="none" xmlns="http://www.w3.org/2000/svg">
<path d="M9 1.65C11.4 1.65 11.7 1.65 12.675 1.725C15.15 1.8 16.275 3 16.35 5.4C16.425 6.375 16.425 6.6 16.425 9C16.425 11.4 16.425 11.7 16.35 12.6C16.275 15 15.075 16.2 12.675 16.275C11.7 16.35 11.475 16.35 9 16.35C6.6 16.35 6.3 16.35 5.4 16.275C2.925 16.2 1.8 15 1.725 12.6C1.65 11.625 1.65 11.4 1.65 9C1.65 6.6 1.65 6.3 1.725 5.4C1.8 3 3 1.8 5.4 1.725C6.3 1.65 6.6 1.65 9 1.65ZM9 0C6.525 0 6.225 0 5.325 0.075C2.025 0.225 0.225 2.025 0.075 5.325C0 6.225 0 6.525 0 9C0 11.475 0 11.775 0.075 12.675C0.225 15.975 2.025 17.775 5.325 17.925C6.225 18 6.525 18 9 18C11.475 18 11.775 18 12.675 17.925C15.975 17.775 17.775 15.975 17.925 12.675C18 11.775 18 11.475 18 9C18 6.525 18 6.225 17.925 5.325C17.775 2.025 15.975 0.225 12.675 0.075C11.775 0 11.475 0 9 0ZM9 4.35C6.45 4.35 4.35 6.45 4.35 9C4.35 11.55 6.45 13.65 9 13.65C11.55 13.65 13.65 11.55 13.65 9C13.65 6.45 11.55 4.35 9 4.35ZM9 12C7.35 12 6 10.65 6 9C6 7.35 7.35 6 9 6C10.65 6 12 7.35 12 9C12 10.65 10.65 12 9 12ZM13.8 3.15C13.2 3.15 12.75 3.6 12.75 4.2C12.75 4.8 13.2 5.25 13.8 5.25C14.4 5.25 14.85 4.8 14.85 4.2C14.85 3.6 14.4 3.15 13.8 3.15Z" fill="white"/>
</svg>
