<svg width="448" height="78" viewBox="0 0 448 78" fill="none" xmlns="http://www.w3.org/2000/svg">
<path d="M94.9771 11.4H100.449L110.337 20.712V27.96L101.025 19.176V39H94.9771V11.4ZM128.049 11.4H122.625L112.689 20.712V27.96L122.001 19.176V39H128.049V11.4ZM153.521 26.376V39H148.097V26.376L134.273 13.176L139.745 11.4L150.785 21.912L161.921 11.4L167.345 13.176L153.521 26.376ZM202.338 35.736L196.914 39H186.978V33.576H196.29V11.4H202.338V35.736ZM175.506 30.264V33.576H184.626V39H174.882L169.266 35.736V30.264H175.506ZM210.501 11.4H216.549V39H210.501V11.4ZM224.236 14.712L229.852 11.4H239.788V17.064H230.476V33.576H239.596V39H229.852L224.236 35.736V14.712ZM257.5 20.328V14.712L251.884 11.4H241.948V17.064H251.26V20.328H257.5ZM257.5 22.488H241.948V27.96H251.26V33.576H242.14V39H251.884L257.5 35.736V22.488ZM307.436 39.048H297.5V33.384H306.86V27.912H297.5V22.488H306.86V16.824H297.5V11.352H307.436L312.908 14.664V22.872L308.396 25.176L312.908 27.336V35.736L307.436 39.048ZM285.788 30.072V33.384H295.148V39.048H285.212L279.548 35.736V30.072H285.788ZM279.74 20.136V14.664L285.212 11.352H295.148V16.824H285.788V20.136H279.74ZM295.148 27.912H289.1V22.488H295.148V27.912ZM321.571 11.4H336.931V16.824H327.619V33.384H336.931V39H321.571V11.4ZM354.643 14.712L349.219 11.4H339.283V16.824H348.595V33.384H339.283V39H349.219L354.643 35.736V14.712Z" fill="#8F8F8F"/>
<path d="M62.3047 31.5H69.1447L81.5047 43.14V52.2L69.8647 41.22V66H62.3047V31.5ZM103.645 31.5H96.8647L84.4447 43.14V52.2L96.0847 41.22V66H103.645V31.5ZM135.485 50.22V66H128.705V50.22L111.425 33.72L118.265 31.5L132.065 44.64L145.985 31.5L152.765 33.72L135.485 50.22ZM196.506 61.92L189.726 66H177.306V59.22H188.946V31.5H196.506V61.92ZM162.966 55.08V59.22H174.366V66H162.186L155.166 61.92V55.08H162.966ZM206.71 31.5H214.27V66H206.71V31.5ZM223.878 35.64L230.898 31.5H243.318V38.58H231.678V59.22H243.078V66H230.898L223.878 61.92V35.64ZM265.458 42.66V35.64L258.438 31.5H246.018V38.58H257.658V42.66H265.458ZM265.458 45.36H246.018V52.2H257.658V59.22H246.258V66H258.438L265.458 61.92V45.36ZM327.879 66.06H315.459V58.98H327.159V52.14H315.459V45.36H327.159V38.28H315.459V31.44H327.879L334.719 35.58V45.84L329.079 48.72L334.719 51.42V61.92L327.879 66.06ZM300.819 54.84V58.98H312.519V66.06H300.099L293.019 61.92V54.84H300.819ZM293.259 42.42V35.58L300.099 31.44H312.519V38.28H300.819V42.42H293.259ZM312.519 52.14H304.959V45.36H312.519V52.14ZM345.547 31.5H364.747V38.28H353.107V58.98H364.747V66H345.547V31.5ZM386.887 35.64L380.107 31.5H367.687V38.28H379.327V58.98H367.687V66H380.107L386.887 61.92V35.64Z" fill="white"/>
</svg>
