<svg width="209" height="178" viewBox="0 0 209 178" fill="none" xmlns="http://www.w3.org/2000/svg">
<rect width="209" height="178" fill="black"/>
<path fill-rule="evenodd" clip-rule="evenodd" d="M104 14.8334C75.3716 14.8334 52.0833 38.1217 52.0833 66.75C52.0833 84.4017 60.9091 99.9025 74.3333 109.322V126.083C74.3333 130.163 77.6708 133.5 81.75 133.5H126.25C130.329 133.5 133.667 130.163 133.667 126.083V109.322C147.091 99.9025 155.917 84.4017 155.917 66.75C155.917 38.1217 132.628 14.8334 104 14.8334ZM81.75 155.75C81.75 159.829 85.0875 163.167 89.1666 163.167H118.833C122.912 163.167 126.25 159.829 126.25 155.75V148.333H81.75V155.75ZM118.833 101.608L125.137 97.1584C135.15 90.1867 141.083 78.8392 141.083 66.75C141.083 46.28 124.47 29.6667 104 29.6667C83.53 29.6667 66.9167 46.28 66.9167 66.75C66.9167 78.8392 72.85 90.1867 82.8625 97.1584L89.1667 101.608V118.667H118.833V101.608Z" fill="#FFD645"/>
</svg>
