<svg width="209" height="178" viewBox="0 0 209 178" fill="none" xmlns="http://www.w3.org/2000/svg">
<rect width="209" height="178" fill="black"/>
<path fill-rule="evenodd" clip-rule="evenodd" d="M135.856 110.731C144.162 113.475 153.062 114.958 162.333 114.958C166.412 114.958 169.75 118.296 169.75 122.375V148.333C169.75 152.412 166.412 155.75 162.333 155.75C92.6908 155.75 36.25 99.3092 36.25 29.6667C36.25 25.5875 39.5875 22.25 43.6667 22.25H69.625C73.7042 22.25 77.0417 25.5875 77.0417 29.6667C77.0417 38.9375 78.525 47.8375 81.2692 56.1442C82.085 58.74 81.4917 61.6325 79.415 63.5608L63.0983 79.9517C73.7783 101.015 90.985 118.147 111.974 128.827L128.291 112.511C129.774 111.102 131.628 110.36 133.557 110.36C134.298 110.36 135.114 110.508 135.856 110.731ZM65.7683 56.2184C64.0625 50.0625 62.95 43.61 62.4308 37.0834H51.3058C51.9733 46.8734 53.9017 56.2184 56.8683 65.1925L65.7683 56.2184ZM154.917 140.694C145.127 140.027 135.633 138.098 126.733 135.058L135.633 126.158C141.938 127.938 148.39 129.05 154.917 129.495V140.694ZM147.5 22.25V44.5H169.75V59.3333H147.5V81.5833H132.667V59.3333H110.417V44.5H132.667V22.25H147.5Z" fill="#FFD645"/>
</svg>
