<svg width="209" height="178" viewBox="0 0 209 178" fill="none" xmlns="http://www.w3.org/2000/svg">
<rect width="209" height="178" fill="black"/>
<path fill-rule="evenodd" clip-rule="evenodd" d="M102.926 14.8333C61.9858 14.8333 28.8333 48.0599 28.8333 88.9999C28.8333 129.94 61.9858 163.167 102.926 163.167C143.94 163.167 177.167 129.94 177.167 88.9999C177.167 48.0599 143.94 14.8333 102.926 14.8333ZM103 148.333C70.2183 148.333 43.6667 121.782 43.6667 88.9999C43.6667 56.2183 70.2183 29.6666 103 29.6666C135.782 29.6666 162.333 56.2183 162.333 88.9999C162.333 121.782 135.782 148.333 103 148.333ZM140.083 70.4583C140.083 76.6141 135.114 81.5833 128.958 81.5833C122.803 81.5833 117.833 76.6141 117.833 70.4583C117.833 64.3024 122.803 59.3333 128.958 59.3333C135.114 59.3333 140.083 64.3024 140.083 70.4583ZM77.0417 81.5833C83.1975 81.5833 88.1667 76.6141 88.1667 70.4583C88.1667 64.3024 83.1975 59.3333 77.0417 59.3333C70.8858 59.3333 65.9167 64.3024 65.9167 70.4583C65.9167 76.6141 70.8858 81.5833 77.0417 81.5833ZM140.899 103.833C134.966 118.963 120.281 129.792 103 129.792C85.7193 129.792 71.0343 118.963 65.1009 103.833H140.899Z" fill="#FFD645"/>
</svg>
